<svg xmlns="http://www.w3.org/2000/svg" viewBox="154 140 334 334" height="334" width="334"><rect x="156" y="142" width="330" height="330" rx="20" ry="20" fill="#fff"></rect><path d="M469.645 140.69h-296.79c-10.173 0-18.414 8.243-18.414 18.414v296.792c0 10.17 8.242 18.413 18.415 18.413h159.78V345.114H289.16v-50.35h43.476v-37.13c0-43.093 26.318-66.556 64.76-66.556 18.41 0 34.236 1.37 38.85 1.982v45.033l-26.662.012c-20.905 0-24.953 9.934-24.953 24.512v32.145h49.86l-6.494 50.35H384.63V474.31h85.015c10.17 0 18.413-8.245 18.413-18.414V159.104c0-10.172-8.244-18.413-18.413-18.413" fill="#3d539f"/></svg>
