<svg xmlns="http://www.w3.org/2000/svg" viewBox="362 6 152 150" height="150" width="152"><g fill="#fff"><path d="M438.26 8.044c-41.682 0-75.484 33.795-75.484 75.485 0 33.35 21.63 61.645 51.621 71.626 3.773.7 5.158-1.637 5.158-3.63 0-1.8-.07-7.747-.102-14.055-21 4.567-25.432-8.905-25.432-8.905-3.432-8.725-8.38-11.045-8.38-11.045-6.85-4.685.516-4.59.516-4.59 7.58.532 11.572 7.78 11.572 7.78 6.732 11.54 17.658 8.204 21.966 6.275.677-4.88 2.634-8.21 4.792-10.094-16.766-1.908-34.39-8.38-34.39-37.304 0-8.24 2.948-14.975 7.777-20.26-.784-1.904-3.368-9.58.73-19.977 0 0 6.34-2.03 20.765 7.736 6.02-1.672 12.478-2.51 18.893-2.54 6.416.03 12.88.868 18.91 2.54 14.41-9.766 20.74-7.737 20.74-7.737 4.108 10.396 1.523 18.072.74 19.975 4.84 5.286 7.768 12.02 7.768 20.26 0 28.994-17.66 35.377-34.468 37.246 2.708 2.344 5.12 6.937 5.12 13.98 0 10.1-.087 18.23-.087 20.715 0 2.01 1.358 4.362 5.185 3.62 29.976-9.99 51.577-38.276 51.577-71.616 0-41.69-33.796-75.486-75.484-75.486" fill-rule="evenodd"/><path d="M391.366 116.424c-.166.376-.756.487-1.294.23-.547-.247-.855-.758-.677-1.134.163-.385.754-.493 1.3-.236.55.247.86.763.67 1.14M394.424 119.834c-.36.333-1.064.178-1.54-.35-.495-.525-.588-1.23-.223-1.568.372-.332 1.055-.176 1.55.35.494.53.59 1.23.214 1.568M397.4 124.18c-.463.322-1.22.02-1.686-.65-.463-.67-.463-1.476.01-1.8.47-.32 1.214-.03 1.687.635.462.682.462 1.487-.01 1.816M401.478 128.38c-.414.457-1.295.335-1.94-.288-.66-.608-.844-1.472-.43-1.928.42-.458 1.306-.33 1.956.288.655.608.855 1.478.414 1.93M407.103 130.82c-.183.59-1.032.86-1.887.61-.854-.26-1.412-.953-1.24-1.55.178-.595 1.03-.875 1.89-.606.854.257 1.414.945 1.237 1.546M413.28 131.272c.02.623-.704 1.14-1.6 1.15-.904.02-1.634-.483-1.644-1.096 0-.63.71-1.14 1.61-1.155.9-.016 1.634.484 1.634 1.102M419.03 130.294c.106.607-.517 1.23-1.41 1.397-.875.16-1.686-.214-1.798-.816-.108-.623.527-1.247 1.402-1.408.892-.155 1.69.21 1.805.828"/></g></svg>