<svg xmlns="http://www.w3.org/2000/svg" viewBox="0 250 211 211" height="211" width="211"><path d="M141.7 339.33c-.035 3.443-.07 6.9-.087 10.344-3.46.034-6.902.05-10.343.07v10.306c3.44.018 6.9.035 10.342.07.035 3.44.035 6.884.07 10.342 3.424 0 6.865-.017 10.308 0 .017-3.458.034-6.9.07-10.36l10.34-.052v-10.308c-3.44-.017-6.9-.035-10.34-.068-.02-3.443-.053-6.902-.07-10.343H141.7zm-93.29 15.566c-.312 15.116 10.1 29.54 24.42 34.245 13.49 4.533 30.076 1.143 39.052-10.41 6.555-8.095 8.042-18.888 7.333-28.97-11.552-.104-23.106-.07-34.64-.052-.02 4.116 0 8.216.016 12.332 6.92.19 13.837.104 20.755.24-1.747 5.986-5.725 11.555-11.76 13.716-11.658 5.138-26.53-1.574-30.198-13.8-4.427-11.71 2.82-25.84 14.787-29.247 7.42-2.613 15.064.327 21.41 4.185 3.22-3.01 6.227-6.226 9.185-9.478-7.213-6.036-16.483-9.737-26.013-8.925-18.696.225-35.057 17.485-34.347 36.164zM7.455 252.043c2.49-.985 5.223-.848 7.835-.952 60.602.07 121.204 0 181.805.036 6.728-.83 12.816 5.293 12.02 12.003.14 61.17.052 122.36.052 183.55.778 6.78-5.292 12.85-12.072 12.195-61.172.016-122.363.016-183.535 0-6.78.656-12.85-5.414-12.072-12.21 0-61.174-.104-122.364.052-183.536-.38-4.497 2.023-8.856 5.915-11.087" fill="#de3a3a"/><path d="M48.41 354.896c-.71-18.68 15.652-35.94 34.347-36.164 9.53-.812 18.8 2.89 26.012 8.925-2.96 3.252-5.967 6.468-9.185 9.478-6.347-3.857-13.99-6.797-21.41-4.186-11.97 3.406-19.215 17.536-14.788 29.245 3.667 12.228 18.54 18.94 30.197 13.8 6.036-2.16 10.014-7.73 11.76-13.714-6.917-.136-13.835-.05-20.753-.24-.016-4.116-.034-8.216-.016-12.332 11.535-.017 23.09-.052 34.64.052.71 10.083-.777 20.875-7.332 28.97-8.976 11.553-25.562 14.943-39.052 10.41-14.32-4.704-24.732-19.127-24.42-34.244M141.7 339.33h10.29c.017 3.443.05 6.9.07 10.344 3.44.034 6.9.05 10.34.07v10.306l-10.34.052c-.036 3.46-.053 6.902-.07 10.36-3.443-.017-6.884 0-10.31 0-.033-3.458-.033-6.9-.068-10.342-3.44-.035-6.9-.052-10.342-.07v-10.307c3.44-.018 6.884-.035 10.342-.07.018-3.442.053-6.9.087-10.342" fill="#fff"/></svg>